<?xml version="1.0" encoding="UTF-8" standalone="no"?>
<svg
    xmlns="http://www.w3.org/2000/svg"
    width="107"
    height="107"
    viewBox="0 0 1024 1024"
    preserveAspectRatio="xMidYMid meet">
  <path
    d="m 498.18467,908.01058
       c -1.82344,-0.43159 -4.4185,-1.82108 -5.76682,-3.08776 -4.56665,-4.29014 -4.8048,-7.30073 -3.0104,-38.05743 0.91019,-15.60097 2.08465,-35.79039 2.60992,-44.86539 2.0674,-35.71801 5.99858,-116.31738 5.68844,-116.62752 -0.18064,-0.18064 -1.95812,1.79916 -3.94996,4.39954 -4.73139,6.17693 -22.37305,23.58244 -31.25585,30.83748 -11.28473,9.21682 -30.94205,21.69524 -46,29.20069 -46.4133,23.13413 -97.91977,33.05085 -152,29.26509 -20.06269,-1.40444 -25.46267,-2.30374 -27.07522,-4.50904 -2.69594,-3.68691 -3.65245,-48.86779 -1.4516,-68.56624 5.57221,-49.87332 23.18519,-94.55904 49.29406,-125.06351
       l 6.47363,-7.56351 -8.60598,-4.81739
       C 259.80703,575.49729 237.23257,558.25841 216.95673,538.01896 201.35803,522.44826 193.20408,512.55183 181.5122,495 158.30698,460.16439 144.22075,425.01169 137.91122,386.19222
       c -1.53865,-9.46657 -1.7381,-12.6959 -0.85019,-13.76575 1.3611,-1.64004 18.19392,-7.21826 32.43897,-10.74995 44.02172,-10.91404 90.37886,-10.96565 133.32447,-0.14844 7.41131,1.86677 18.6952,5.25706 25.07531,7.53397 14.70252,5.24699 39.20967,17.15127 49.60022,24.09317
       l 8,5.34478 -0.34487,-20.5
       c -0.38211,-22.71419 0.82269,-39.43312 4.36442,-60.56457 8.71227,-51.98109 29.47276,-100.3039 61.62285,-143.43543 11.85722,-15.90726 39.52489,-42.64003 55.56438,-53.68685 6.13774,-4.22723 4.95207,-4.66285 19.87628,7.30264 32.7027,26.21937 57.733,58.00058 78.667,99.88421 18.15851,36.33059 28.70199,74.09754 32.73709,117.26494 1.16577,12.47134 1.48602,47.50163 0.47122,51.54489 -0.60711,2.41893 -0.1337,2.23872 7.69737,-2.9301 10.26238,-6.77358 34.90395,-18.94788 48.34426,-23.88474 13.47734,-4.95046 34.20239,-10.19591 50,-12.65484 16.43291,-2.55782 52.13983,-3.57089 68.73757,-1.95021 21.01195,2.05171 44.75836,7.05115 63.76243,13.42421 11.23752,3.76853 11.14234,3.55942 8.47632,18.62266
       C 876.50172,437.64409 854.92041,483.867 822.4158,522
       c -9.62614,11.29297 -27.78298,29.03781 -38.9004,38.01771 -11.00791,8.89144 -28.8098,20.89337 -41.5154,27.98945 -5.225,2.91816 -9.67541,5.44825 -9.88979,5.62242 -0.21439,0.17417 2.35417,3.24999 5.70792,6.83515 3.35374,3.58517 9.29571,11.35976 13.20436,17.27688 18.34285,27.7683 30.42754,62.29026 35.44632,101.25839 3.40394,26.42979 2.89926,72.0605 -0.83834,75.7981 -2.11235,2.11236 -7.88894,2.93587 -30.1721,4.30135 -65.05681,3.98658 -126.38294,-11.97043 -177.393,-46.15752 -18.38356,-12.32072 -36.0681,-28.03836 -49.30744,-43.8234
       l -3.67486,-4.38148 0.4479,3.38148
       c 0.24634,1.85981 1.14587,17.55647 1.99895,34.88147 1.62869,33.07677 5.83181,109.37287 7.51104,136.34232 1.34001,21.52132 0.26302,25.00342 -8.72476,28.20887 -4.16775,1.4864 -22.52583,1.78619 -28.13153,0.45939
       z"
    fill="#000000"/>
</svg>
